<?xml version="1.0" encoding="UTF-8" standalone="no"?>
<svg
   xmlns:dc="http://purl.org/dc/elements/1.1/"
   xmlns:cc="http://creativecommons.org/ns#"
   xmlns:rdf="http://www.w3.org/1999/02/22-rdf-syntax-ns#"
   xmlns:svg="http://www.w3.org/2000/svg"
   xmlns="http://www.w3.org/2000/svg"
   xmlns:sodipodi="http://sodipodi.sourceforge.net/DTD/sodipodi-0.dtd"
   xmlns:inkscape="http://www.inkscape.org/namespaces/inkscape"
   width="163.54102"
   height="121.1284"
   version="1.1"
   id="svg4"
   sodipodi:docname="PreTeens_Zoom_MeetUp.svg"
   inkscape:version="1.0.1 (3bc2e813f5, 2020-09-07)">
  <metadata
     id="metadata10">
    <rdf:RDF>
      <cc:Work
         rdf:about="">
        <dc:format>image/svg+xml</dc:format>
        <dc:type
           rdf:resource="http://purl.org/dc/dcmitype/StillImage" />
        <dc:title></dc:title>
      </cc:Work>
    </rdf:RDF>
  </metadata>
  <defs
     id="defs8" />
  <sodipodi:namedview
     pagecolor="#ffffff"
     bordercolor="#666666"
     borderopacity="1"
     objecttolerance="10"
     gridtolerance="10"
     guidetolerance="10"
     inkscape:pageopacity="0"
     inkscape:pageshadow="2"
     inkscape:window-width="1600"
     inkscape:window-height="826"
     id="namedview6"
     showgrid="false"
     fit-margin-top="1"
     fit-margin-left="1"
     fit-margin-right="1"
     fit-margin-bottom="1"
     inkscape:zoom="1.4281275"
     inkscape:cx="-112.85887"
     inkscape:cy="-66.021703"
     inkscape:window-x="0"
     inkscape:window-y="0"
     inkscape:window-maximized="1"
     inkscape:current-layer="g35"
     inkscape:document-rotation="0"
     borderlayer="false" />
  <g
     id="g24"
     transform="translate(-25.341105,1.5610121)">
    <g
       id="g35"
       transform="matrix(1.0096313,0,0,1.0096313,-1.0316242,-0.56202236)">
      <path
         d="m 157.38131,51.929321 c 0.61159,1.05519 0.81168,2.255728 0.87775,3.60539 l 0.0868,1.798919 v 12.579221 l 0.0887,1.800807 c 0.17744,2.94094 2.34633,5.115499 5.30993,5.300488 l 1.79141,0.08872 V 57.33363 l 0.0887,-1.798919 c 0.0736,-1.33456 0.27182,-2.55775 0.89286,-3.620492 a 7.1843515,7.1843515 0 0 1 12.43953,0.02265 c 0.6116,1.055191 0.80225,2.278381 0.87587,3.59784 l 0.0887,1.793257 v 12.584883 l 0.0887,1.800807 c 0.18499,2.956041 2.3369,5.130601 5.30993,5.300488 l 1.79142,0.08872 V 55.534711 A 14.383804,14.383804 0 0 0 172.73347,41.150905 14.346051,14.346051 0 0 0 161.94562,46.0229 14.364928,14.364928 0 0 0 151.15776,41.149018 c -2.98624,0 -5.75729,0.906066 -8.05266,2.470918 -1.40063,-1.562964 -4.53411,-2.470918 -6.33303,-2.470918 v 35.953847 l 1.79892,-0.08872 c 3.0089,-0.198202 5.18346,-2.314245 5.30049,-5.300488 l 0.0963,-1.800807 V 57.33363 l 0.0887,-1.798919 c 0.0755,-1.357212 0.26427,-2.5502 0.87775,-3.612941 a 7.2032279,7.2032279 0 0 1 6.22354,-3.582737 7.191902,7.191902 0 0 1 6.22355,3.590288 z m -123.079686,25.086713 1.798919,0.08683 h 26.964913 l -0.08872,-1.793256 C 62.733231,72.353567 60.63984,70.194109 57.67436,70.00157 L 55.875441,69.91285 H 39.698381 L 61.266537,48.337144 61.177817,46.545775 C 61.038132,43.559531 58.856022,41.40196 55.875441,41.237736 l -1.798918,-0.08117 -26.964914,-0.0076 0.08872,1.798919 c 0.235955,2.927727 2.359548,5.132489 5.300489,5.302377 l 1.800807,0.08872 h 16.17706 l -21.568155,21.575705 0.08872,1.79892 c 0.177438,2.963592 2.316132,5.109837 5.302376,5.300488 z M 129.71419,46.411753 a 17.97598,17.97598 0 0 1 0,25.424601 17.989193,17.989193 0 0 1 -25.43026,0 c -7.02013,-7.020127 -7.02013,-18.404472 0,-25.424601 a 17.966542,17.966542 0 0 1 12.7038,-5.264623 17.979755,17.979755 0 0 1 12.72646,5.266511 z m -5.08718,5.090961 a 10.791628,10.791628 0 0 1 0,15.255893 10.791628,10.791628 0 0 1 -15.2559,0 10.791628,10.791628 0 0 1 0,-15.255893 10.791628,10.791628 0 0 1 15.2559,0 z M 79.257618,41.14713 a 17.966542,17.966542 0 0 1 12.703806,5.266511 c 7.022014,7.018241 7.022014,18.404474 0,25.422713 a 17.989193,17.989193 0 0 1 -25.430264,0 c -7.020127,-7.020127 -7.020127,-18.404472 0,-25.424601 A 17.966542,17.966542 0 0 1 79.234966,41.14713 Z m 7.61662,10.351809 a 10.791628,10.791628 0 0 1 0,15.257781 10.791628,10.791628 0 0 1 -15.255892,0 10.791628,10.791628 0 0 1 0,-15.255893 10.791628,10.791628 0 0 1 15.255892,0 z"
         id="path2"
         inkscape:connector-curvature="0"
         style="fill:#2d8cff;fill-rule:evenodd;stroke-width:1.88764" />
      <g
         aria-label="Be sure to catch "
         id="text814"
         style="font-style:normal;font-variant:normal;font-weight:bold;font-stretch:condensed;font-size:24px;line-height:70%;font-family:'Barlow Condensed';-inkscape-font-specification:'Barlow Condensed, Bold Condensed';font-variant-ligatures:normal;font-variant-caps:normal;font-variant-numeric:normal;font-feature-settings:normal;text-align:start;letter-spacing:0px;word-spacing:0px;writing-mode:lr-tb;text-anchor:start;fill:#000000;fill-opacity:1;stroke:none">
        <path
           d="m 46.451864,12.169001 q 0,2.232 -1.344,3.432 -1.344,1.2 -3.48,1.2 h -4.536 q -0.12,0 -0.216,-0.072 -0.072,-0.096 -0.072,-0.216 V 0.2890006 q 0,-0.12 0.072,-0.192 0.096,-0.096 0.216,-0.096 h 4.008 q 2.4,0 3.744,1.152 1.368,1.152 1.368,3.432 0,2.376 -1.632,3.456 -0.096,0.072 -0.024,0.144 1.896,1.344 1.896,3.9840004 z m -6.144,-9.2640004 q -0.12,0 -0.12,0.12 v 3.768 q 0,0.12 0.12,0.12 h 0.864 q 0.816,0 1.272,-0.504 0.456,-0.528 0.456,-1.464 0,-0.984 -0.456,-1.512 -0.432,-0.528 -1.272,-0.528 z m 1.056,10.9680004 q 0.792,0 1.248,-0.576 0.456,-0.576 0.456,-1.632 0,-1.056 -0.456,-1.6800004 -0.456,-0.624 -1.224,-0.624 h -1.08 q -0.12,0 -0.12,0.12 v 4.2720004 q 0,0.12 0.12,0.12 z"
           id="path82" />
        <path
           d="m 56.843847,11.401001 q 0,0.12 -0.096,0.216 -0.072,0.072 -0.192,0.072 h -5.28 q -0.12,0 -0.12,0.12 v 0.888 q 0,0.6 0.312,1.008 0.336,0.384 0.84,0.384 0.456,0 0.744,-0.288 0.288,-0.312 0.384,-0.768 0.072,-0.24 0.312,-0.24 l 2.76,0.144 q 0.12,0 0.192,0.096 0.096,0.072 0.072,0.216 -0.168,1.848 -1.296,2.808 -1.104,0.936 -3.168,0.936 -2.136,0 -3.336,-1.056 -1.2,-1.08 -1.2,-2.976 V 8.3050006 q 0,-1.824 1.2,-2.928 1.224,-1.104 3.336,-1.104 2.112,0 3.312,1.104 1.224,1.104 1.224,2.928 z m -4.536,-4.2240004 q -0.504,0 -0.84,0.384 -0.312,0.384 -0.312,0.984 v 0.936 q 0,0.12 0.12,0.12 h 2.064 q 0.12,0 0.12,-0.12 v -0.936 q 0,-0.6 -0.336,-0.984 -0.312,-0.384 -0.816,-0.384 z"
           id="path84" />
        <path
           d="m 67.331794,16.969001 q -2.04,0 -3.264,-0.96 -1.2,-0.984 -1.2,-2.616 v -0.168 q 0,-0.12 0.072,-0.192 0.096,-0.096 0.216,-0.096 h 2.64 q 0.12,0 0.192,0.096 0.096,0.072 0.096,0.192 v 0.072 q 0,0.504 0.36,0.84 0.36,0.312 0.888,0.312 0.48,0 0.744,-0.264 0.288,-0.288 0.288,-0.72 0,-0.528 -0.456,-0.816 -0.456,-0.312 -1.032,-0.504 -0.552,-0.216 -0.768,-0.288 -1.32,-0.48 -2.232,-1.32 -0.888,-0.8640004 -0.888,-2.4720004 0,-1.752 1.152,-2.76 1.152,-1.008 3.072,-1.008 1.992,0 3.144,1.056 1.176,1.056 1.176,2.856 0,0.12 -0.096,0.216 -0.072,0.072 -0.192,0.072 h -2.568 q -0.12,0 -0.216,-0.072 -0.072,-0.096 -0.072,-0.216 v -0.192 q 0,-0.48 -0.312,-0.768 -0.288,-0.312 -0.768,-0.312 -0.504,0 -0.792,0.336 -0.288,0.312 -0.288,0.744 0,0.576 0.48,0.912 0.504,0.312 1.512,0.696 1.032,0.3840004 1.752,0.7920004 0.744,0.384 1.272,1.128 0.528,0.72 0.528,1.824 0,1.656 -1.224,2.64 -1.2,0.96 -3.216,0.96 z"
           id="path86" />
        <path
           d="m 78.611764,4.7530006 q 0,-0.12 0.072,-0.192 0.096,-0.096 0.216,-0.096 h 2.808 q 0.12,0 0.192,0.096 0.096,0.072 0.096,0.192 V 16.513001 q 0,0.12 -0.096,0.216 -0.072,0.072 -0.192,0.072 h -2.808 q -0.12,0 -0.216,-0.072 -0.072,-0.096 -0.072,-0.216 v -0.408 q 0,-0.072 -0.048,-0.096 -0.048,-0.024 -0.096,0.048 -0.36,0.504 -0.912,0.72 -0.528,0.192 -1.248,0.192 -1.44,0 -2.376,-0.864 -0.936,-0.888 -0.936,-2.712 V 4.7530006 q 0,-0.12 0.072,-0.192 0.096,-0.096 0.216,-0.096 h 2.808 q 0.12,0 0.192,0.096 0.096,0.072 0.096,0.192 v 7.8960004 q 0,0.696 0.264,1.08 0.288,0.36 0.816,0.36 0.528,0 0.84,-0.408 0.312,-0.408 0.312,-1.104 z"
           id="path88" />
        <path
           d="m 89.33973,4.3210006 q 0.648,0 1.008,0.24 0.192,0.12 0.144,0.36 l -0.456,2.808 q -0.024,0.264 -0.336,0.192 -0.264,-0.096 -0.648,-0.096 -0.36,0 -0.624,0.096 -0.552,0.096 -0.888,0.672 -0.336,0.552 -0.336,1.296 v 6.6000004 q 0,0.12 -0.096,0.216 -0.072,0.072 -0.192,0.072 h -2.808 q -0.12,0 -0.216,-0.072 -0.072,-0.096 -0.072,-0.216 V 4.7530006 q 0,-0.12 0.072,-0.192 0.096,-0.096 0.216,-0.096 h 2.808 q 0.12,0 0.192,0.096 0.096,0.072 0.096,0.192 v 0.936 q 0,0.096 0.024,0.12 0.048,0 0.096,-0.072 0.648,-1.416 2.016,-1.416 z"
           id="path90" />
        <path
           d="m 100.33167,11.401001 q 0,0.12 -0.096,0.216 -0.072,0.072 -0.192,0.072 h -5.279999 q -0.12,0 -0.12,0.12 v 0.888 q 0,0.6 0.312,1.008 0.336,0.384 0.84,0.384 0.456,0 0.744,-0.288 0.288,-0.312 0.384,-0.768 0.072,-0.24 0.312,-0.24 l 2.76,0.144 q 0.119999,0 0.191999,0.096 0.096,0.072 0.072,0.216 -0.168,1.848 -1.295999,2.808 -1.104,0.936 -3.168,0.936 -2.136,0 -3.336,-1.056 -1.2,-1.08 -1.2,-2.976 V 8.3050006 q 0,-1.824 1.2,-2.928 1.224,-1.104 3.336,-1.104 2.112,0 3.312,1.104 1.223999,1.104 1.223999,2.928 z M 95.795671,7.1770006 q -0.504,0 -0.84,0.384 -0.312,0.384 -0.312,0.984 v 0.936 q 0,0.12 0.12,0.12 h 2.064 q 0.12,0 0.12,-0.12 v -0.936 q 0,-0.6 -0.336,-0.984 -0.312,-0.384 -0.816,-0.384 z"
           id="path92" />
        <path
           d="m 112.30762,6.5530006 q 0,0.12 -0.096,0.216 -0.072,0.072 -0.192,0.072 h -1.344 q -0.12,0 -0.12,0.12 v 5.7120004 q 0,0.696 0.264,0.96 0.264,0.264 0.792,0.24 h 0.168 q 0.12,0 0.192,0.096 0.096,0.072 0.096,0.192 v 2.352 q 0,0.12 -0.096,0.216 -0.072,0.072 -0.192,0.072 h -0.96 q -1.752,0 -2.64,-0.576 -0.888,-0.6 -0.888,-2.256 V 6.9610006 q 0,-0.12 -0.12,-0.12 h -0.792 q -0.12,0 -0.216,-0.072 -0.072,-0.096 -0.072,-0.216 v -1.8 q 0,-0.12 0.072,-0.192 0.096,-0.096 0.216,-0.096 h 0.792 q 0.12,0 0.12,-0.12 v -2.664 q 0,-0.12 0.072,-0.192 0.096,-0.096 0.216,-0.096 h 2.688 q 0.12,0 0.192,0.096 0.096,0.072 0.096,0.192 v 2.664 q 0,0.12 0.12,0.12 h 1.344 q 0.12,0 0.192,0.096 0.096,0.072 0.096,0.192 z"
           id="path94" />
        <path
           d="m 118.06758,16.993001 q -2.136,0 -3.36,-1.08 -1.2,-1.08 -1.2,-2.952 V 8.3050006 q 0,-1.824 1.224,-2.928 1.224,-1.104 3.336,-1.104 2.136,0 3.36,1.104 1.224,1.104 1.224,2.928 v 4.6560004 q 0,1.872 -1.224,2.952 -1.2,1.08 -3.36,1.08 z m 0,-2.928 q 0.528,0 0.864,-0.384 0.336,-0.384 0.336,-0.984 V 8.5450006 q 0,-0.6 -0.336,-0.984 -0.336,-0.384 -0.864,-0.384 -0.528,0 -0.864,0.384 -0.312,0.384 -0.312,0.984 v 4.1520004 q 0,0.6 0.312,0.984 0.336,0.384 0.864,0.384 z"
           id="path96" />
        <path
           d="m 133.45154,16.993001 q -2.112,0 -3.336,-1.08 -1.2,-1.08 -1.2,-2.952 V 8.3050006 q 0,-1.824 1.2,-2.928 1.224,-1.104 3.336,-1.104 2.112,0 3.312,1.08 1.224,1.08 1.224,2.808 v 0.432 q 0,0.12 -0.096,0.216 -0.072,0.072 -0.192,0.072 l -2.808,0.12 q -0.288,0 -0.288,-0.288 v -0.288 q 0,-0.528 -0.336,-0.888 -0.312,-0.36 -0.816,-0.36 -0.528,0 -0.84,0.384 -0.312,0.384 -0.312,1.008 v 4.1280004 q 0,0.624 0.312,1.008 0.312,0.384 0.84,0.384 0.504,0 0.816,-0.36 0.336,-0.384 0.336,-0.888 v -0.312 q 0,-0.12 0.072,-0.192 0.096,-0.096 0.216,-0.096 l 2.808,0.024 q 0.12,0 0.192,0.096 0.096,0.072 0.096,0.192 v 0.552 q 0,1.776 -1.224,2.832 -1.2,1.056 -3.312,1.056 z"
           id="path98" />
        <path
           d="m 143.96349,4.2730006 q 2.04,0 3.312,1.104 1.272,1.104 1.272,2.904 v 8.2320004 q 0,0.12 -0.096,0.216 -0.072,0.072 -0.192,0.072 h -2.808 q -0.12,0 -0.216,-0.072 -0.072,-0.096 -0.072,-0.216 v -0.528 q 0,-0.072 -0.048,-0.096 -0.048,-0.024 -0.096,0.048 -0.792,1.008 -2.448,1.056 -1.392,0 -2.424,-0.768 -1.008,-0.768 -1.008,-2.928 0,-2.232 1.224,-3.072 1.248,-0.8400004 3.576,-0.8400004 h 1.104 q 0.12,0 0.12,-0.12 v -0.6 q 0,-0.648 -0.36,-1.056 -0.336,-0.432 -0.864,-0.432 -0.408,0 -0.696,0.264 -0.264,0.24 -0.336,0.696 -0.024,0.288 -0.312,0.288 l -2.88,-0.024 q -0.288,0 -0.288,-0.288 0.12,-1.752 1.368,-2.784 1.248,-1.056 3.168,-1.056 z m -0.24,10.1040004 q 0.552,0 0.984,-0.36 0.456,-0.384 0.456,-1.008 v -1.128 q 0,-0.12 -0.12,-0.12 h -0.984 q -0.648,0 -1.056,0.384 -0.384,0.36 -0.384,1.008 0,0.6 0.288,0.912 0.312,0.312 0.816,0.312 z"
           id="path100" />
        <path
           d="m 155.81947,6.5530006 q 0,0.12 -0.096,0.216 -0.072,0.072 -0.192,0.072 h -1.344 q -0.12,0 -0.12,0.12 v 5.7120004 q 0,0.696 0.264,0.96 0.264,0.264 0.792,0.24 h 0.168 q 0.12,0 0.192,0.096 0.096,0.072 0.096,0.192 v 2.352 q 0,0.12 -0.096,0.216 -0.072,0.072 -0.192,0.072 h -0.96 q -1.752,0 -2.64,-0.576 -0.888,-0.6 -0.888,-2.256 V 6.9610006 q 0,-0.12 -0.12,-0.12 h -0.792 q -0.12,0 -0.216,-0.072 -0.072,-0.096 -0.072,-0.216 v -1.8 q 0,-0.12 0.072,-0.192 0.096,-0.096 0.216,-0.096 h 0.792 q 0.12,0 0.12,-0.12 v -2.664 q 0,-0.12 0.072,-0.192 0.096,-0.096 0.216,-0.096 h 2.688 q 0.12,0 0.192,0.096 0.096,0.072 0.096,0.192 v 2.664 q 0,0.12 0.12,0.12 h 1.344 q 0.12,0 0.192,0.096 0.096,0.072 0.096,0.192 z"
           id="path102" />
        <path
           d="m 161.55544,16.993001 q -2.112,0 -3.336,-1.08 -1.2,-1.08 -1.2,-2.952 V 8.3050006 q 0,-1.824 1.2,-2.928 1.224,-1.104 3.336,-1.104 2.112,0 3.312,1.08 1.224,1.08 1.224,2.808 v 0.432 q 0,0.12 -0.096,0.216 -0.072,0.072 -0.192,0.072 l -2.808,0.12 q -0.288,0 -0.288,-0.288 v -0.288 q 0,-0.528 -0.336,-0.888 -0.312,-0.36 -0.816,-0.36 -0.528,0 -0.84,0.384 -0.312,0.384 -0.312,1.008 v 4.1280004 q 0,0.624 0.312,1.008 0.312,0.384 0.84,0.384 0.504,0 0.816,-0.36 0.336,-0.384 0.336,-0.888 v -0.312 q 0,-0.12 0.072,-0.192 0.096,-0.096 0.216,-0.096 l 2.808,0.024 q 0.12,0 0.192,0.096 0.096,0.072 0.096,0.192 v 0.552 q 0,1.776 -1.224,2.832 -1.2,1.056 -3.312,1.056 z"
           id="path104" />
        <path
           d="m 173.33939,4.2730006 q 1.632,0 2.448,1.08 0.816,1.08 0.816,3.024 v 8.1360004 q 0,0.12 -0.096,0.216 -0.072,0.072 -0.192,0.072 h -2.808 q -0.12,0 -0.216,-0.072 -0.072,-0.096 -0.072,-0.216 V 8.6410006 q 0,-0.696 -0.288,-1.08 -0.264,-0.384 -0.792,-0.384 -0.552,0 -0.864,0.408 -0.288,0.384 -0.288,1.104 v 7.8240004 q 0,0.12 -0.096,0.216 -0.072,0.072 -0.192,0.072 h -2.808 q -0.12,0 -0.216,-0.072 -0.072,-0.096 -0.072,-0.216 V 0.2890006 q 0,-0.12 0.072,-0.192 0.096,-0.096 0.216,-0.096 h 2.808 q 0.12,0 0.192,0.096 0.096,0.072 0.096,0.192 v 4.92 q 0,0.072 0.048,0.072 0.072,0 0.168,-0.096 0.768,-0.912 2.136,-0.912 z"
           id="path106" />
      </g>
      <g
         aria-label="This week's "
         id="text818"
         style="font-style:normal;font-variant:normal;font-weight:bold;font-stretch:condensed;font-size:24px;line-height:70%;font-family:'Barlow Condensed';-inkscape-font-specification:'Barlow Condensed, Bold Condensed';font-variant-ligatures:normal;font-variant-caps:normal;font-variant-numeric:normal;font-feature-settings:normal;text-align:start;letter-spacing:0px;word-spacing:0px;writing-mode:lr-tb;text-anchor:start;fill:#000000;fill-opacity:1;stroke:none">
        <path
           d="m 66.479771,20.934062 q 0.12,0 0.192,0.096 0.096,0.072 0.096,0.192 v 2.328 q 0,0.12 -0.096,0.216 -0.072,0.072 -0.192,0.072 h -3 q -0.12,0 -0.12,0.12 v 13.488 q 0,0.12 -0.096,0.216 -0.072,0.072 -0.192,0.072 h -2.808 q -0.12,0 -0.216,-0.072 -0.072,-0.096 -0.072,-0.216 v -13.488 q 0,-0.12 -0.12,-0.12 h -2.88 q -0.12,0 -0.216,-0.072 -0.072,-0.096 -0.072,-0.216 v -2.328 q 0,-0.12 0.072,-0.192 0.096,-0.096 0.216,-0.096 z"
           id="path61" />
        <path
           d="m 73.991735,25.206062 q 1.632,0 2.448,1.08 0.816,1.08 0.816,3.024 v 8.136 q 0,0.12 -0.096,0.216 -0.072,0.072 -0.192,0.072 h -2.808 q -0.12,0 -0.216,-0.072 -0.072,-0.096 -0.072,-0.216 v -7.872 q 0,-0.696 -0.288,-1.08 -0.264,-0.384 -0.792,-0.384 -0.552,0 -0.864,0.408 -0.288,0.384 -0.288,1.104 v 7.824 q 0,0.12 -0.096,0.216 -0.072,0.072 -0.192,0.072 h -2.808 q -0.12,0 -0.216,-0.072 -0.072,-0.096 -0.072,-0.216 v -16.224 q 0,-0.12 0.072,-0.192 0.096,-0.096 0.216,-0.096 h 2.808 q 0.12,0 0.192,0.096 0.096,0.072 0.096,0.192 v 4.92 q 0,0.072 0.048,0.072 0.072,0 0.168,-0.096 0.768,-0.912 2.136,-0.912 z"
           id="path63" />
        <path
           d="m 80.687701,24.006062 q -0.816,0 -1.368,-0.528 -0.528,-0.552 -0.528,-1.368 0,-0.84 0.528,-1.368 0.528,-0.528 1.368,-0.528 0.84,0 1.344,0.528 0.528,0.528 0.528,1.368 0,0.816 -0.528,1.368 -0.528,0.528 -1.344,0.528 z m -1.368,13.728 q -0.12,0 -0.216,-0.072 -0.072,-0.096 -0.072,-0.216 v -11.76 q 0,-0.12 0.072,-0.192 0.096,-0.096 0.216,-0.096 h 2.808 q 0.12,0 0.192,0.096 0.096,0.072 0.096,0.192 v 11.76 q 0,0.12 -0.096,0.216 -0.072,0.072 -0.192,0.072 z"
           id="path65" />
        <path
           d="m 88.367698,37.902062 q -2.04,0 -3.264,-0.96 -1.2,-0.984 -1.2,-2.616 v -0.168 q 0,-0.12 0.072,-0.192 0.096,-0.096 0.216,-0.096 h 2.64 q 0.12,0 0.192,0.096 0.096,0.072 0.096,0.192 v 0.072 q 0,0.504 0.36,0.84 0.36,0.312 0.888,0.312 0.48,0 0.744,-0.264 0.288,-0.288 0.288,-0.72 0,-0.528 -0.456,-0.816 -0.456,-0.312 -1.032,-0.504 -0.552,-0.216 -0.768,-0.288 -1.32,-0.48 -2.232,-1.32 -0.888,-0.864 -0.888,-2.472 0,-1.752 1.152,-2.76 1.152,-1.008 3.072,-1.008 1.992,0 3.144,1.056 1.176,1.056 1.176,2.856 0,0.12 -0.096,0.216 -0.072,0.072 -0.192,0.072 h -2.568 q -0.12,0 -0.216,-0.072 -0.072,-0.096 -0.072,-0.216 v -0.192 q 0,-0.48 -0.312,-0.768 -0.288,-0.312 -0.768,-0.312 -0.504,0 -0.792,0.336 -0.288,0.312 -0.288,0.744 0,0.576 0.48,0.912 0.504,0.312 1.512,0.696 1.032,0.384 1.752,0.792 0.744,0.384 1.272,1.128 0.528,0.72 0.528,1.824 0,1.656 -1.224,2.64 -1.2,0.96 -3.216,0.96 z"
           id="path67" />
        <path
           d="m 101.30364,37.734062 q -0.264,0 -0.312,-0.264 l -2.592,-11.784 v -0.096 q 0,-0.216 0.264,-0.216 h 2.664 q 0.288,0 0.312,0.264 l 1.032,6.576 q 0.024,0.072 0.072,0.072 0.048,0 0.072,-0.072 l 1.056,-6.576 q 0.024,-0.264 0.312,-0.264 h 2.376 q 0.288,0 0.312,0.264 l 1.128,6.6 q 0.024,0.072 0.072,0.072 0.048,-0.024 0.072,-0.096 l 1.008,-6.576 q 0.024,-0.264 0.312,-0.264 l 2.64,0.048 q 0.312,0 0.24,0.312 l -2.568,11.736 q -0.048,0.264 -0.312,0.264 h -2.736 q -0.288,0 -0.312,-0.264 l -1.032,-6.096 q -0.024,-0.072 -0.072,-0.072 -0.048,0 -0.072,0.072 l -0.984,6.096 q -0.024,0.264 -0.312,0.264 z"
           id="path69" />
        <path
           d="m 122.1596,32.334062 q 0,0.12 -0.096,0.216 -0.072,0.072 -0.192,0.072 h -5.28 q -0.12,0 -0.12,0.12 v 0.888 q 0,0.6 0.312,1.008 0.336,0.384 0.84,0.384 0.456,0 0.744,-0.288 0.288,-0.312 0.384,-0.768 0.072,-0.24 0.312,-0.24 l 2.76,0.144 q 0.12,0 0.192,0.096 0.096,0.072 0.072,0.216 -0.168,1.848 -1.296,2.808 -1.104,0.936 -3.168,0.936 -2.136,0 -3.336,-1.056 -1.2,-1.08 -1.2,-2.976 v -4.656 q 0,-1.824 1.2,-2.928 1.224,-1.104 3.336,-1.104 2.112,0 3.312,1.104 1.224,1.104 1.224,2.928 z m -4.536,-4.224 q -0.504,0 -0.84,0.384 -0.312,0.384 -0.312,0.984 v 0.936 q 0,0.12 0.12,0.12 h 2.064 q 0.12,0 0.12,-0.12 v -0.936 q 0,-0.6 -0.336,-0.984 -0.312,-0.384 -0.816,-0.384 z"
           id="path71" />
        <path
           d="m 132.62357,32.334062 q 0,0.12 -0.096,0.216 -0.072,0.072 -0.192,0.072 h -5.28 q -0.12,0 -0.12,0.12 v 0.888 q 0,0.6 0.312,1.008 0.336,0.384 0.84,0.384 0.456,0 0.744,-0.288 0.288,-0.312 0.384,-0.768 0.072,-0.24 0.312,-0.24 l 2.76,0.144 q 0.12,0 0.192,0.096 0.096,0.072 0.072,0.216 -0.168,1.848 -1.296,2.808 -1.104,0.936 -3.168,0.936 -2.136,0 -3.336,-1.056 -1.2,-1.08 -1.2,-2.976 v -4.656 q 0,-1.824 1.2,-2.928 1.224,-1.104 3.336,-1.104 2.112,0 3.312,1.104 1.224,1.104 1.224,2.928 z m -4.536,-4.224 q -0.504,0 -0.84,0.384 -0.312,0.384 -0.312,0.984 v 0.936 q 0,0.12 0.12,0.12 h 2.064 q 0.12,0 0.12,-0.12 v -0.936 q 0,-0.6 -0.336,-0.984 -0.312,-0.384 -0.816,-0.384 z"
           id="path73" />
        <path
           d="m 134.47155,37.734062 q -0.12,0 -0.216,-0.072 -0.072,-0.096 -0.072,-0.216 v -16.224 q 0,-0.12 0.072,-0.192 0.096,-0.096 0.216,-0.096 h 2.808 q 0.12,0 0.192,0.096 0.096,0.072 0.096,0.192 v 7.944 q 0,0.096 0.048,0.12 0.048,0 0.096,-0.072 l 2.088,-3.624 q 0.096,-0.192 0.36,-0.192 h 2.88 q 0.168,0 0.216,0.096 0.072,0.096 -0.024,0.24 l -2.592,4.032 q -0.048,0.096 -0.024,0.168 l 2.928,7.464 q 0.024,0.048 0.024,0.12 0,0.216 -0.264,0.216 h -2.904 q -0.24,0 -0.312,-0.24 l -1.536,-4.752 q -0.024,-0.072 -0.072,-0.072 -0.048,-0.024 -0.072,0.048 l -0.792,1.248 q -0.048,0.096 -0.048,0.144 v 3.336 q 0,0.12 -0.096,0.216 -0.072,0.072 -0.192,0.072 z"
           id="path75" />
        <path
           d="m 145.00753,26.382062 q -0.12,0 -0.216,-0.072 -0.096,-0.096 -0.096,-0.216 l -0.288,-4.848 q 0,-0.288 0.264,-0.288 h 2.832 q 0.312,0 0.264,0.288 l -0.336,4.848 q -0.024,0.12 -0.12,0.216 -0.072,0.072 -0.192,0.072 z"
           id="path77" />
        <path
           d="m 152.68748,37.902062 q -2.04,0 -3.264,-0.96 -1.2,-0.984 -1.2,-2.616 v -0.168 q 0,-0.12 0.072,-0.192 0.096,-0.096 0.216,-0.096 h 2.64 q 0.12,0 0.192,0.096 0.096,0.072 0.096,0.192 v 0.072 q 0,0.504 0.36,0.84 0.36,0.312 0.888,0.312 0.48,0 0.744,-0.264 0.288,-0.288 0.288,-0.72 0,-0.528 -0.456,-0.816 -0.456,-0.312 -1.032,-0.504 -0.552,-0.216 -0.768,-0.288 -1.32,-0.48 -2.232,-1.32 -0.888,-0.864 -0.888,-2.472 0,-1.752 1.152,-2.76 1.152,-1.008 3.072,-1.008 1.992,0 3.144,1.056 1.176,1.056 1.176,2.856 0,0.12 -0.096,0.216 -0.072,0.072 -0.192,0.072 h -2.568 q -0.12,0 -0.216,-0.072 -0.072,-0.096 -0.072,-0.216 v -0.192 q 0,-0.48 -0.312,-0.768 -0.288,-0.312 -0.768,-0.312 -0.504,0 -0.792,0.336 -0.288,0.312 -0.288,0.744 0,0.576 0.48,0.912 0.504,0.312 1.512,0.696 1.032,0.384 1.752,0.792 0.744,0.384 1.272,1.128 0.528,0.72 0.528,1.824 0,1.656 -1.224,2.64 -1.2,0.96 -3.216,0.96 z"
           id="path79" />
      </g>
      <g
         aria-label="Meet up"
         id="text822"
         style="font-style:normal;font-variant:normal;font-weight:bold;font-stretch:condensed;font-size:24px;line-height:70%;font-family:'Barlow Condensed';-inkscape-font-specification:'Barlow Condensed, Bold Condensed';font-variant-ligatures:normal;font-variant-caps:normal;font-variant-numeric:normal;font-feature-settings:normal;text-align:start;letter-spacing:0px;word-spacing:0px;writing-mode:lr-tb;text-anchor:start;fill:#000000;fill-opacity:1;stroke:none">
        <path
           d="m 82.079704,80.515932 q 0.096,-0.192 0.36,-0.192 h 2.784 q 0.12,0 0.192,0.096 0.096,0.072 0.096,0.192 v 16.224 q 0,0.12 -0.096,0.216 -0.072,0.072 -0.192,0.072 h -2.808 q -0.12,0 -0.216,-0.072 -0.072,-0.096 -0.072,-0.216 v -10.776 q 0,-0.096 -0.048,-0.096 -0.048,0 -0.096,0.072 l -1.872,3.312 q -0.12,0.192 -0.192,0.192 -0.072,0 -0.192,-0.192 l -1.872,-3.312 q -0.048,-0.072 -0.096,-0.072 -0.048,0 -0.048,0.096 v 10.776 q 0,0.12 -0.096,0.216 -0.072,0.072 -0.192,0.072 h -2.808 q -0.12,0 -0.216,-0.072 -0.072,-0.096 -0.072,-0.216 v -16.224 q 0,-0.12 0.072,-0.192 0.096,-0.096 0.216,-0.096 h 2.76 q 0.24,0 0.36,0.192 l 2.136,3.816 q 0.072,0.096 0.144,0 z"
           id="path48" />
        <path
           d="m 96.311667,91.723932 q 0,0.12 -0.096,0.216 -0.072,0.072 -0.192,0.072 h -5.28 q -0.12,0 -0.12,0.12 v 0.888 q 0,0.6 0.312,1.008 0.336,0.384 0.84,0.384 0.456,0 0.744,-0.288 0.288,-0.312 0.384,-0.768 0.072,-0.24 0.312,-0.24 l 2.76,0.144 q 0.12,0 0.192,0.096 0.096,0.072 0.072,0.216 -0.168,1.848 -1.296,2.808 -1.104,0.936 -3.168,0.936 -2.136,0 -3.336,-1.056 -1.2,-1.08 -1.2,-2.976 v -4.656 q 0,-1.824 1.2,-2.928 1.224,-1.104 3.336,-1.104 2.112,0 3.312,1.104 1.224,1.104 1.224,2.928 z m -4.536,-4.224 q -0.504,0 -0.84,0.384 -0.312,0.384 -0.312,0.984 v 0.936 q 0,0.12 0.12,0.12 h 2.064 q 0.12,0 0.12,-0.12 v -0.936 q 0,-0.6 -0.336,-0.984 -0.312,-0.384 -0.816,-0.384 z"
           id="path50" />
        <path
           d="m 106.77564,91.723932 q 0,0.12 -0.096,0.216 -0.072,0.072 -0.192,0.072 h -5.28 q -0.12,0 -0.12,0.12 v 0.888 q 0,0.6 0.312,1.008 0.336,0.384 0.84,0.384 0.456,0 0.744,-0.288 0.288,-0.312 0.384,-0.768 0.072,-0.24 0.312,-0.24 l 2.76,0.144 q 0.12,0 0.192,0.096 0.096,0.072 0.072,0.216 -0.168,1.848 -1.296,2.808 -1.104,0.936 -3.168,0.936 -2.136,0 -3.335999,-1.056 -1.2,-1.08 -1.2,-2.976 v -4.656 q 0,-1.824 1.2,-2.928 1.223999,-1.104 3.335999,-1.104 2.112,0 3.312,1.104 1.224,1.104 1.224,2.928 z m -4.536,-4.224 q -0.504,0 -0.84,0.384 -0.312,0.384 -0.312,0.984 v 0.936 q 0,0.12 0.12,0.12 h 2.064 q 0.12,0 0.12,-0.12 v -0.936 q 0,-0.6 -0.336,-0.984 -0.312,-0.384 -0.816,-0.384 z"
           id="path52" />
        <path
           d="m 113.87961,86.875932 q 0,0.12 -0.096,0.216 -0.072,0.072 -0.192,0.072 h -1.344 q -0.12,0 -0.12,0.12 v 5.712 q 0,0.696 0.264,0.96 0.264,0.264 0.792,0.24 h 0.168 q 0.12,0 0.192,0.096 0.096,0.072 0.096,0.192 v 2.352 q 0,0.12 -0.096,0.216 -0.072,0.072 -0.192,0.072 h -0.96 q -1.752,0 -2.64,-0.576 -0.888,-0.6 -0.888,-2.256 v -7.008 q 0,-0.12 -0.12,-0.12 h -0.792 q -0.12,0 -0.216,-0.072 -0.072,-0.096 -0.072,-0.216 v -1.8 q 0,-0.12 0.072,-0.192 0.096,-0.096 0.216,-0.096 h 0.792 q 0.12,0 0.12,-0.12 v -2.664 q 0,-0.12 0.072,-0.192 0.096,-0.096 0.216,-0.096 h 2.688 q 0.12,0 0.192,0.096 0.096,0.072 0.096,0.192 v 2.664 q 0,0.12 0.12,0.12 h 1.344 q 0.12,0 0.192,0.096 0.096,0.072 0.096,0.192 z"
           id="path54" />
        <path
           d="m 125.56754,85.075932 q 0,-0.12 0.072,-0.192 0.096,-0.096 0.216,-0.096 h 2.808 q 0.12,0 0.192,0.096 0.096,0.072 0.096,0.192 v 11.76 q 0,0.12 -0.096,0.216 -0.072,0.072 -0.192,0.072 h -2.808 q -0.12,0 -0.216,-0.072 -0.072,-0.096 -0.072,-0.216 v -0.408 q 0,-0.072 -0.048,-0.096 -0.048,-0.024 -0.096,0.048 -0.36,0.504 -0.912,0.72 -0.528,0.192 -1.248,0.192 -1.44,0 -2.376,-0.864 -0.936,-0.888 -0.936,-2.712 v -8.64 q 0,-0.12 0.072,-0.192 0.096,-0.096 0.216,-0.096 h 2.808 q 0.12,0 0.192,0.096 0.096,0.072 0.096,0.192 v 7.896 q 0,0.696 0.264,1.08 0.288,0.36 0.816,0.36 0.528,0 0.84,-0.408 0.312,-0.408 0.312,-1.104 z"
           id="path56" />
        <path
           d="m 136.53551,84.595932 q 1.656,0 2.496,1.08 0.864,1.056 0.864,2.928 v 4.68 q 0,1.944 -0.864,3 -0.864,1.032 -2.496,1.032 -0.528,0 -1.104,-0.192 -0.576,-0.216 -1.056,-0.744 -0.048,-0.072 -0.096,-0.048 -0.048,0.024 -0.048,0.096 v 4.871998 q 0,0.12 -0.096,0.192 -0.072,0.096 -0.192,0.096 h -2.808 q -0.12,0 -0.216,-0.096 -0.072,-0.072 -0.072,-0.192 V 85.075932 q 0,-0.12 0.072,-0.192 0.096,-0.096 0.216,-0.096 h 2.808 q 0.12,0 0.192,0.096 0.096,0.072 0.096,0.192 v 0.384 q 0,0.048 0.048,0.048 0.096,0 0.192,-0.12 0.816,-0.792 2.064,-0.792 z m -0.024,4.272 q 0,-0.624 -0.312,-1.008 -0.312,-0.384 -0.84,-0.384 -0.504,0 -0.816,0.384 -0.312,0.384 -0.312,1.008 v 4.152 q 0,0.624 0.312,1.008 0.312,0.384 0.816,0.384 0.528,0 0.84,-0.384 0.312,-0.384 0.312,-1.008 z"
           id="path58" />
      </g>
      <g
         aria-label="For IES PreTeens!"
         id="text826"
         style="font-style:normal;font-variant:normal;font-weight:bold;font-stretch:condensed;font-size:24px;line-height:70%;font-family:'Barlow Condensed';-inkscape-font-specification:'Barlow Condensed, Bold Condensed';font-variant-ligatures:normal;font-variant-caps:normal;font-variant-numeric:normal;font-feature-settings:normal;text-align:start;letter-spacing:0px;word-spacing:0px;writing-mode:lr-tb;text-anchor:start;fill:#000000;fill-opacity:1;stroke:none">
        <path
           d="m 41.651832,103.61699 q 0,0.12 -0.096,0.216 -0.072,0.072 -0.192,0.072 h -4.992 q -0.12,0 -0.12,0.12 v 3.792 q 0,0.12 0.12,0.12 h 2.856 q 0.12,0 0.192,0.096 0.096,0.072 0.096,0.192 v 2.328 q 0,0.12 -0.096,0.216 -0.072,0.072 -0.192,0.072 h -2.856 q -0.12,0 -0.12,0.12 v 6.552 q 0,0.12 -0.096,0.216 -0.072,0.072 -0.192,0.072 h -2.808 q -0.12,0 -0.216,-0.072 -0.072,-0.096 -0.072,-0.216 v -16.224 q 0,-0.12 0.072,-0.192 0.096,-0.096 0.216,-0.096 h 8.208 q 0.12,0 0.192,0.096 0.096,0.072 0.096,0.192 z"
           id="path17" />
        <path
           d="m 46.403812,117.99299 q -2.136,0 -3.36,-1.08 -1.2,-1.08 -1.2,-2.952 v -4.656 q 0,-1.824 1.224,-2.928 1.224,-1.104 3.336,-1.104 2.136,0 3.36,1.104 1.224,1.104 1.224,2.928 v 4.656 q 0,1.872 -1.224,2.952 -1.2,1.08 -3.36,1.08 z m 0,-2.928 q 0.528,0 0.864,-0.384 0.336,-0.384 0.336,-0.984 v -4.152 q 0,-0.6 -0.336,-0.984 -0.336,-0.384 -0.864,-0.384 -0.528,0 -0.864,0.384 -0.312,0.384 -0.312,0.984 v 4.152 q 0,0.6 0.312,0.984 0.336,0.384 0.864,0.384 z"
           id="path19" />
        <path
           d="m 58.139798,105.32099 q 0.648,0 1.008,0.24 0.192,0.12 0.144,0.36 l -0.456,2.808 q -0.024,0.264 -0.336,0.192 -0.264,-0.096 -0.648,-0.096 -0.36,0 -0.624,0.096 -0.552,0.096 -0.888,0.672 -0.336,0.552 -0.336,1.296 v 6.6 q 0,0.12 -0.096,0.216 -0.072,0.072 -0.192,0.072 h -2.808 q -0.12,0 -0.216,-0.072 -0.072,-0.096 -0.072,-0.216 v -11.736 q 0,-0.12 0.072,-0.192 0.096,-0.096 0.216,-0.096 h 2.808 q 0.12,0 0.192,0.096 0.096,0.072 0.096,0.192 v 0.936 q 0,0.096 0.024,0.12 0.048,0 0.096,-0.072 0.648,-1.416 2.016,-1.416 z"
           id="path21" />
        <path
           d="m 65.627756,117.80099 q -0.12,0 -0.216,-0.072 -0.072,-0.096 -0.072,-0.216 v -16.224 q 0,-0.12 0.072,-0.192 0.096,-0.096 0.216,-0.096 h 2.808 q 0.12,0 0.192,0.096 0.096,0.072 0.096,0.192 v 16.224 q 0,0.12 -0.096,0.216 -0.072,0.072 -0.192,0.072 z"
           id="path23" />
        <path
           d="m 79.667745,103.61699 q 0,0.12 -0.096,0.216 -0.072,0.072 -0.192,0.072 h -5.016 q -0.12,0 -0.12,0.12 v 3.792 q 0,0.12 0.12,0.12 h 2.88 q 0.12,0 0.192,0.096 0.096,0.072 0.096,0.192 v 2.328 q 0,0.12 -0.096,0.216 -0.072,0.072 -0.192,0.072 h -2.88 q -0.12,0 -0.12,0.12 v 3.816 q 0,0.12 0.12,0.12 h 5.016 q 0.12,0 0.192,0.096 0.096,0.072 0.096,0.192 v 2.328 q 0,0.12 -0.096,0.216 -0.072,0.072 -0.192,0.072 h -8.232 q -0.12,0 -0.216,-0.072 -0.072,-0.096 -0.072,-0.216 v -16.224 q 0,-0.12 0.072,-0.192 0.096,-0.096 0.216,-0.096 h 8.232 q 0.12,0 0.192,0.096 0.096,0.072 0.096,0.192 z"
           id="path25" />
        <path
           d="m 85.691739,117.99299 q -1.392,0 -2.448,-0.552 -1.056,-0.552 -1.632,-1.536 -0.576,-1.008 -0.576,-2.304 v -0.696 q 0,-0.12 0.072,-0.192 0.096,-0.096 0.216,-0.096 h 2.76 q 0.12,0 0.192,0.096 0.096,0.072 0.096,0.192 v 0.528 q 0,0.744 0.384,1.2 0.384,0.456 0.96,0.456 0.576,0 0.96,-0.432 0.384,-0.432 0.384,-1.128 0,-0.72 -0.48,-1.224 -0.48,-0.528 -1.872,-1.536 -1.2,-0.864 -1.944,-1.536 -0.744,-0.672 -1.272,-1.656 -0.528,-0.984 -0.528,-2.28 0,-2.04 1.272,-3.264 1.272,-1.224 3.36,-1.224 2.112,0 3.384,1.272 1.296,1.272 1.296,3.336 v 0.576 q 0,0.12 -0.096,0.216 -0.072,0.072 -0.192,0.072 h -2.76 q -0.12,0 -0.216,-0.072 -0.072,-0.096 -0.072,-0.216 v -0.648 q 0,-0.744 -0.384,-1.176 -0.36,-0.456 -0.96,-0.456 -0.576,0 -0.936,0.432 -0.36,0.408 -0.36,1.152 0,0.72 0.456,1.272 0.456,0.552 1.8,1.536 1.488,1.104 2.232,1.8 0.768,0.672 1.176,1.512 0.432,0.816 0.432,1.968 0,2.112 -1.296,3.36 -1.296,1.248 -3.408,1.248 z"
           id="path27" />
        <path
           d="m 101.93967,100.97699 q 1.32,0 2.352,0.648 1.032,0.648 1.584,1.824 0.576,1.152 0.576,2.64 0,2.232 -1.2,3.576 -1.2,1.344 -3.144,1.344 h -1.8 q -0.12,0 -0.12,0.12 v 6.384 q 0,0.12 -0.096,0.216 -0.072,0.072 -0.191999,0.072 h -2.808 q -0.12,0 -0.216,-0.072 -0.072,-0.096 -0.072,-0.216 v -16.248 q 0,-0.12 0.072,-0.192 0.096,-0.096 0.216,-0.096 z m -0.576,7.392 q 0.768,0 1.224,-0.576 0.48,-0.6 0.48,-1.632 0,-1.056 -0.48,-1.656 -0.456,-0.6 -1.224,-0.6 h -1.056 q -0.12,0 -0.12,0.12 v 4.224 q 0,0.12 0.12,0.12 z"
           id="path29" />
        <path
           d="m 113.36363,105.32099 q 0.648,0 1.008,0.24 0.192,0.12 0.144,0.36 l -0.456,2.808 q -0.024,0.264 -0.336,0.192 -0.264,-0.096 -0.648,-0.096 -0.36,0 -0.624,0.096 -0.552,0.096 -0.888,0.672 -0.336,0.552 -0.336,1.296 v 6.6 q 0,0.12 -0.096,0.216 -0.072,0.072 -0.192,0.072 h -2.808 q -0.12,0 -0.216,-0.072 -0.072,-0.096 -0.072,-0.216 v -11.736 q 0,-0.12 0.072,-0.192 0.096,-0.096 0.216,-0.096 h 2.808 q 0.12,0 0.192,0.096 0.096,0.072 0.096,0.192 v 0.936 q 0,0.096 0.024,0.12 0.048,0 0.096,-0.072 0.648,-1.416 2.016,-1.416 z"
           id="path31" />
        <path
           d="m 124.35557,112.40099 q 0,0.12 -0.096,0.216 -0.072,0.072 -0.192,0.072 h -5.28 q -0.12,0 -0.12,0.12 v 0.888 q 0,0.6 0.312,1.008 0.336,0.384 0.84,0.384 0.456,0 0.744,-0.288 0.288,-0.312 0.384,-0.768 0.072,-0.24 0.312,-0.24 l 2.76,0.144 q 0.12,0 0.192,0.096 0.096,0.072 0.072,0.216 -0.168,1.848 -1.296,2.808 -1.104,0.936 -3.168,0.936 -2.136,0 -3.336,-1.056 -1.2,-1.08 -1.2,-2.976 v -4.656 q 0,-1.824 1.2,-2.928 1.224,-1.104 3.336,-1.104 2.112,0 3.312,1.104 1.224,1.104 1.224,2.928 z m -4.536,-4.224 q -0.504,0 -0.84,0.384 -0.312,0.384 -0.312,0.984 v 0.936 q 0,0.12 0.12,0.12 h 2.064 q 0.12,0 0.12,-0.12 v -0.936 q 0,-0.6 -0.336,-0.984 -0.312,-0.384 -0.816,-0.384 z"
           id="path33" />
        <path
           d="m 135.37154,101.00099 q 0.12,0 0.192,0.096 0.096,0.072 0.096,0.192 v 2.328 q 0,0.12 -0.096,0.216 -0.072,0.072 -0.192,0.072 h -3 q -0.12,0 -0.12,0.12 v 13.488 q 0,0.12 -0.096,0.216 -0.072,0.072 -0.192,0.072 h -2.808 q -0.12,0 -0.216,-0.072 -0.072,-0.096 -0.072,-0.216 v -13.488 q 0,-0.12 -0.12,-0.12 h -2.88 q -0.12,0 -0.216,-0.072 -0.072,-0.096 -0.072,-0.216 v -2.328 q 0,-0.12 0.072,-0.192 0.096,-0.096 0.216,-0.096 z"
           id="path35" />
        <path
           d="m 144.3955,112.40099 q 0,0.12 -0.096,0.216 -0.072,0.072 -0.192,0.072 h -5.28 q -0.12,0 -0.12,0.12 v 0.888 q 0,0.6 0.312,1.008 0.336,0.384 0.84,0.384 0.456,0 0.744,-0.288 0.288,-0.312 0.384,-0.768 0.072,-0.24 0.312,-0.24 l 2.76,0.144 q 0.12,0 0.192,0.096 0.096,0.072 0.072,0.216 -0.168,1.848 -1.296,2.808 -1.104,0.936 -3.168,0.936 -2.136,0 -3.336,-1.056 -1.2,-1.08 -1.2,-2.976 v -4.656 q 0,-1.824 1.2,-2.928 1.224,-1.104 3.336,-1.104 2.112,0 3.312,1.104 1.224,1.104 1.224,2.928 z m -4.536,-4.224 q -0.504,0 -0.84,0.384 -0.312,0.384 -0.312,0.984 v 0.936 q 0,0.12 0.12,0.12 h 2.064 q 0.12,0 0.12,-0.12 v -0.936 q 0,-0.6 -0.336,-0.984 -0.312,-0.384 -0.816,-0.384 z"
           id="path37" />
        <path
           d="m 154.85948,112.40099 q 0,0.12 -0.096,0.216 -0.072,0.072 -0.192,0.072 h -5.28 q -0.12,0 -0.12,0.12 v 0.888 q 0,0.6 0.312,1.008 0.336,0.384 0.84,0.384 0.456,0 0.744,-0.288 0.288,-0.312 0.384,-0.768 0.072,-0.24 0.312,-0.24 l 2.76,0.144 q 0.12,0 0.192,0.096 0.096,0.072 0.072,0.216 -0.168,1.848 -1.296,2.808 -1.104,0.936 -3.168,0.936 -2.136,0 -3.336,-1.056 -1.2,-1.08 -1.2,-2.976 v -4.656 q 0,-1.824 1.2,-2.928 1.224,-1.104 3.336,-1.104 2.112,0 3.312,1.104 1.224,1.104 1.224,2.928 z m -4.536,-4.224 q -0.504,0 -0.84,0.384 -0.312,0.384 -0.312,0.984 v 0.936 q 0,0.12 0.12,0.12 h 2.064 q 0.12,0 0.12,-0.12 v -0.936 q 0,-0.6 -0.336,-0.984 -0.312,-0.384 -0.816,-0.384 z"
           id="path39" />
        <path
           d="m 162.15545,105.27299 q 1.632,0 2.448,1.08 0.816,1.08 0.816,3.024 v 8.136 q 0,0.12 -0.096,0.216 -0.072,0.072 -0.192,0.072 h -2.808 q -0.12,0 -0.216,-0.072 -0.072,-0.096 -0.072,-0.216 v -7.872 q 0,-0.696 -0.288,-1.08 -0.264,-0.384 -0.792,-0.384 -0.552,0 -0.864,0.408 -0.288,0.384 -0.288,1.104 v 7.824 q 0,0.12 -0.096,0.216 -0.072,0.072 -0.192,0.072 h -2.808 q -0.12,0 -0.216,-0.072 -0.072,-0.096 -0.072,-0.216 v -11.76 q 0,-0.12 0.072,-0.192 0.096,-0.096 0.216,-0.096 h 2.808 q 0.12,0 0.192,0.096 0.096,0.072 0.096,0.192 v 0.456 q 0,0.072 0.048,0.072 0.072,0 0.168,-0.096 0.768,-0.912 2.136,-0.912 z"
           id="path41" />
        <path
           d="m 171.27542,117.96899 q -2.04,0 -3.264,-0.96 -1.2,-0.984 -1.2,-2.616 v -0.168 q 0,-0.12 0.072,-0.192 0.096,-0.096 0.216,-0.096 h 2.64 q 0.12,0 0.192,0.096 0.096,0.072 0.096,0.192 v 0.072 q 0,0.504 0.36,0.84 0.36,0.312 0.888,0.312 0.48,0 0.744,-0.264 0.288,-0.288 0.288,-0.72 0,-0.528 -0.456,-0.816 -0.456,-0.312 -1.032,-0.504 -0.552,-0.216 -0.768,-0.288 -1.32,-0.48 -2.232,-1.32 -0.888,-0.864 -0.888,-2.472 0,-1.752 1.152,-2.76 1.152,-1.008 3.072,-1.008 1.992,0 3.144,1.056 1.176,1.056 1.176,2.856 0,0.12 -0.096,0.216 -0.072,0.072 -0.192,0.072 h -2.568 q -0.12,0 -0.216,-0.072 -0.072,-0.096 -0.072,-0.216 v -0.192 q 0,-0.48 -0.312,-0.768 -0.288,-0.312 -0.768,-0.312 -0.504,0 -0.792,0.336 -0.288,0.312 -0.288,0.744 0,0.576 0.48,0.912 0.504,0.312 1.512,0.696 1.032,0.384 1.752,0.792 0.744,0.384 1.272,1.128 0.528,0.72 0.528,1.824 0,1.656 -1.224,2.64 -1.2,0.96 -3.216,0.96 z"
           id="path43" />
        <path
           d="m 178.40339,112.04099 q -0.12,0 -0.216,-0.072 -0.072,-0.096 -0.072,-0.216 l -0.36,-10.464 q 0,-0.12 0.072,-0.192 0.096,-0.096 0.216,-0.096 h 2.808 q 0.12,0 0.192,0.096 0.096,0.072 0.096,0.192 l -0.336,10.464 q 0,0.12 -0.096,0.216 -0.072,0.072 -0.192,0.072 z m 1.08,5.736 q -0.816,0 -1.368,-0.528 -0.528,-0.552 -0.528,-1.368 0,-0.84 0.528,-1.368 0.528,-0.528 1.368,-0.528 0.84,0 1.344,0.528 0.528,0.528 0.528,1.368 0,0.816 -0.528,1.368 -0.528,0.528 -1.344,0.528 z"
           id="path45" />
      </g>
    </g>
  </g>
</svg>
